<svg xmlns="http://www.w3.org/2000/svg" viewBox="0 0 526.41 160.03">
  <defs>
    <style>
      .cls-1 {
        fill: #f8b195;
      }
    </style>
  </defs>
  <title>Risorsa 4</title>
  <g id="Livello_2" data-name="Livello 2">
    <g id="Livello_1-2" data-name="Livello 1">
      <g>
        <path class="cls-1" d="M82.62,0q27.41,0,44,13.6Q143,27,143,47.63a49.71,49.71,0,0,1-8.5,27.9,71.93,71.93,0,0,1-21.7,21.3,98.83,98.83,0,0,1-29.6,12.3,90.6,90.6,0,0,1-31.8,2.1q-5.81,15-9.2,26.6a125.72,125.72,0,0,0-4.4,20c-4.67,1.46-7.67,2.2-9,2.2q-7.6-.41-7.6-8.8a19.57,19.57,0,0,1,.6-4.2c.4-1.74.9-3.6,1.5-5.6s1.3-4.1,2.1-6.3,1.6-4.24,2.4-6.1,1.77-4.1,2.9-6.7,2.43-5.64,3.9-9.1,2.7-6.24,3.7-8.7,1.83-4.44,2.5-5.9c.13-.54,1.27-3.2,3.4-8q2.6-6.81,3.6-9c.27-.67.63-1.67,1.1-3s1.17-3.07,2.1-5.2,1.7-4,2.3-5.5,1-2.77,1.3-3.7.63-2.07,1.1-3.4,1-2.94,1.7-4.8c1.2-3.74,2-6.7,2.5-8.9s1-4.77,1.7-7.7a57.92,57.92,0,0,0,1.3-8,47.31,47.31,0,0,0,.1-6.8q7-4.61,11.6-2.7t4.4,9.5q-.4,11.59-10.2,36.4L55.42,101a63.09,63.09,0,0,0,23.9-1.9A77.92,77.92,0,0,0,102.22,89a56.57,56.57,0,0,0,17.1-17.5,43.06,43.06,0,0,0,6.7-23.3,34.53,34.53,0,0,0-12.58-27.4Q100.87,10,79.71,10,55.55,10,36,26.63T16.42,64.23q0,11.4,5.4,18.8-8,10.2-14.91,5.4T0,68.83a49.49,49.49,0,0,1,6.4-25.5A78.23,78.23,0,0,1,24.72,21a90.53,90.53,0,0,1,26.6-15.6A80.78,80.78,0,0,1,82.62,0Z"/>
        <path class="cls-1" d="M147.82,144.63q-6,0-9.4-3.7t-3.4-10.5q0-13.2,8.6-30.2,7-13.61,14-13.6,4.2,0,7.8,4.8Q148.82,117,148.82,128q0,6,4.4,6,6.41,0,20.6-11.4,7-5.61,13.2-11.1t11.6-10.9l.8-.8q1.4-1.2,3,.3a7.83,7.83,0,0,1,2.2,4.1l-2.6,2.6q-20.6,20.6-31,28Q157.41,144.63,147.82,144.63Zm17-63.8a7.57,7.57,0,0,1-5.7-2.4,8.34,8.34,0,0,1-2.3-6,10.87,10.87,0,0,1,3.1-7.7,9.92,9.92,0,0,1,7.5-3.3,7.7,7.7,0,0,1,5.7,2.3,8.24,8.24,0,0,1,2.3,6.1,11.51,11.51,0,0,1-3.4,7.7A9.8,9.8,0,0,1,164.82,80.83Z"/>
        <path class="cls-1" d="M285.62,99.83q2.4-2.2,5.2,4.4l-2.6,2.6q-29,29-43,29a10,10,0,0,1-8.9-4.7q-3.1-4.71-5.5-13.3-12.19,11.6-13.4,20a14,14,0,0,1-5,1q-6.4,0-6.4-6.2,0-3.6,3.4-8.3a50.35,50.35,0,0,1,7.2-8.1q2-1.61,4.7-4t6.3-5.4q-1-4.41-1.5-6.3c-.33-1.27-.77-2.7-1.3-4.3A6.86,6.86,0,0,0,223,93a3.7,3.7,0,0,0-2.4-.8q-4,0-16,12l-.4.4q-3,3-5.6-4l2.8-2.8,1.4-1.4,4.1-4.1a39.71,39.71,0,0,1,3.3-3c1.07-.87,2.17-1.7,3.3-2.5s2.5-1.67,4.1-2.6a16.79,16.79,0,0,1,8.6-2.6q5.81,0,8.4,4.2a40.65,40.65,0,0,1,4.4,11.6q14.21-11.61,17.6-21a12.56,12.56,0,0,1,5.2-1.4c3.47,0,5.2,1.66,5.2,5a10.34,10.34,0,0,1-2.7,6.5q-2.7,3.3-6.7,7.5a32,32,0,0,1-3.6,3.4q-2.4,2-3.8,3.2l-4.1,3.5-4.1,3.5c.53,2.13,1.07,4,1.6,5.7a43.55,43.55,0,0,0,1.6,4.3,15,15,0,0,0,2.6,4.6,4.33,4.33,0,0,0,3.2,1.2q4.8,0,15.4-7.6,5.2-3.81,9.8-7.5a108.83,108.83,0,0,0,8.6-7.7Z"/>
        <path class="cls-1" d="M349.82,100.23c1.2-1.2,2.33-1.24,3.4-.1a9.13,9.13,0,0,1,2.2,4.1l-2.8,2.8q-3.81,3.8-6.7,6.6t-5.1,4.8q-4.2,4-12,10.2a62.81,62.81,0,0,1-15.1,9.6,35.6,35.6,0,0,1-13.9,3q-9.6,0-14.9-6.1t-5.3-15.9q0-15.6,11.8-29.2,11.59-13.41,24.8-13.4a12.84,12.84,0,0,1,8.3,2.5,8.38,8.38,0,0,1,3.1,6.9q0,7.2-8.4,15.2Q311,109,296,111.83a16.79,16.79,0,0,0-.3,2.3c-.07.86-.1,1.9-.1,3.1q0,12.39,8.6,12.4,8,0,21.2-9,6.39-4.41,12.4-9.4t11.6-10.6Zm-33.2-15.8a9.19,9.19,0,0,0-4.7,1.5,24.13,24.13,0,0,0-5,4.1,43.38,43.38,0,0,0-8.7,13.6,35.29,35.29,0,0,0,13-5.6q7.59-6,7.6-11.2C318.82,85.23,318.08,84.43,316.62,84.43Z"/>
        <path class="cls-1" d="M409.23,99.83c.8-.8,1.76-.7,2.9.3a7.6,7.6,0,0,1,2.29,4.1l-2.59,2.6q-1.2,1.2-9.57,10.2-8.76,9-13.14,13.2a50,50,0,0,1-5.29,4.5,73,73,0,0,1-6.87,4.5q-7.56,4.8-13.54,4.8-7.5,0-11.85-6.7t-4.35-19.27q0-20.37,12.6-47.13A205.8,205.8,0,0,1,386,30q16.59-20.16,28.6-20.16a8.92,8.92,0,0,1,6.4,2.49c1.73,1.66,2.6,4.1,2.6,7.29q0,14-19.34,35.74a259.63,259.63,0,0,1-18.74,19.17A120,120,0,0,1,368.2,87.9q-6,18-6,29.35,0,13.57,7.17,13.58,8.57-1.2,21.12-12.6,2.39-2,4-3.6c1.06-1.07,2.06-2,3-2.9s1.89-1.8,2.89-2.8,2.22-2.24,3.69-3.7q2-2.2,3.08-3.3l1.3-1.3Zm2.39-80.4q-5,0-17.2,17.6-6.21,9-11.5,18.2a195.89,195.89,0,0,0-9.7,19.2q19.59-15.6,29.8-30.2,10.39-14.61,10.4-22.2C413.42,20.29,412.82,19.43,411.62,19.43Z"/>
        <path class="cls-1" d="M412.22,144.63q-6,0-9.4-3.7t-3.4-10.5q0-13.2,8.6-30.2,7-13.61,14-13.6,4.2,0,7.8,4.8Q413.22,117,413.22,128c0,4,1.46,6,4.4,6q6.39,0,20.6-11.4,7-5.61,13.2-11.1t11.6-10.9l.8-.8q1.4-1.2,3,.3a7.9,7.9,0,0,1,2.2,4.1l-2.6,2.6q-20.61,20.6-31,28Q421.82,144.63,412.22,144.63Zm17-63.8a7.57,7.57,0,0,1-5.7-2.4,8.3,8.3,0,0,1-2.3-6,10.87,10.87,0,0,1,3.1-7.7,9.89,9.89,0,0,1,7.5-3.3,7.74,7.74,0,0,1,5.7,2.3,8.24,8.24,0,0,1,2.3,6.1,11.56,11.56,0,0,1-3.4,7.7A9.83,9.83,0,0,1,429.22,80.83Z"/>
        <path class="cls-1" d="M473.21,138.83q-8.31,0-13-4.9t-4.75-13.3q0-14.2,12.61-27.2,12.59-12.6,26-12.6a14.84,14.84,0,0,1,8.69,2.3,6.78,6.78,0,0,1,3.31,5.7q0,3.8-4.41,5.2a8.13,8.13,0,0,1-6.4.6c.14-3.34-1.21-5-4-5q-6.26,0-12.71,9.4-6.66,9.6-6.66,19.6,0,9.8,7,9.8,13.81,0,41.6-27.8l.4-.4c1.34-1.07,2.5-1.14,3.5-.2a7.73,7.73,0,0,1,2.1,4.2l-2.8,2.8q-8.79,8.79-15,14.4a85.42,85.42,0,0,1-16.8,11.4Q481.22,138.83,473.21,138.83Z"/>
      </g>
    </g>
  </g>
</svg>
